<mxfile host="app.diagrams.net" agent="Mozilla/5.0 (Macintosh; Intel Mac OS X 10_15_7) AppleWebKit/605.1.15 (KHTML, like Gecko) Version/18.5 Safari/605.1.15" version="28.0.7">
  <diagram name="OSI-TCPIP-Comparison" id="osi-tcpip-comparison">
    <mxGraphModel dx="1200" dy="734" grid="1" gridSize="10" guides="1" tooltips="1" connect="1" arrows="1" fold="1" page="1" pageScale="1" pageWidth="827" pageHeight="1169" math="0" shadow="0">
      <root>
        <mxCell id="0" />
        <mxCell id="1" parent="0" />
        <mxCell id="group1" value="" style="rounded=1;whiteSpace=wrap;html=1;strokeColor=#666666;strokeWidth=2;fillColor=none;dashed=1;dashPattern=8 4;" parent="1" vertex="1">
          <mxGeometry x="30" y="50" width="640" height="200" as="geometry" />
        </mxCell>
        <mxCell id="group2" value="" style="rounded=1;whiteSpace=wrap;html=1;strokeColor=#666666;strokeWidth=2;fillColor=none;dashed=1;dashPattern=8 4;" parent="1" vertex="1">
          <mxGeometry x="30" y="260" width="640" height="70" as="geometry" />
        </mxCell>
        <mxCell id="group3" value="" style="rounded=1;whiteSpace=wrap;html=1;strokeColor=#666666;strokeWidth=2;fillColor=none;dashed=1;dashPattern=8 4;" parent="1" vertex="1">
          <mxGeometry x="30" y="340" width="640" height="70" as="geometry" />
        </mxCell>
        <mxCell id="group4" value="" style="rounded=1;whiteSpace=wrap;html=1;strokeColor=#666666;strokeWidth=2;fillColor=none;dashed=1;dashPattern=8 4;" parent="1" vertex="1">
          <mxGeometry x="30" y="420" width="640" height="140" as="geometry" />
        </mxCell>
        <mxCell id="osi7" value="Capa 7: Aplicación&lt;br&gt;&lt;font style=&quot;font-size: 10px; color: #666666;&quot;&gt;HTTP, FTP, SMTP, DNS&lt;/font&gt;" style="rounded=0;whiteSpace=wrap;html=1;strokeColor=#333333;strokeWidth=2;fillColor=#e3f2fd;fillOpacity=80;" parent="1" vertex="1">
          <mxGeometry x="50" y="70" width="200" height="50" as="geometry" />
        </mxCell>
        <mxCell id="osi6" value="Capa 6: Presentación&lt;br&gt;&lt;font style=&quot;font-size: 10px; color: #666666;&quot;&gt;Cifrado, Compresión, SSL/TLS&lt;/font&gt;" style="rounded=0;whiteSpace=wrap;html=1;strokeColor=#333333;strokeWidth=2;fillColor=#e8f5e8;fillOpacity=80;" parent="1" vertex="1">
          <mxGeometry x="50" y="130" width="200" height="50" as="geometry" />
        </mxCell>
        <mxCell id="osi5" value="Capa 5: Sesión&lt;br&gt;&lt;font style=&quot;font-size: 10px; color: #666666;&quot;&gt;Gestión de sesiones, NetBIOS&lt;/font&gt;" style="rounded=0;whiteSpace=wrap;html=1;strokeColor=#333333;strokeWidth=2;fillColor=#fff3e0;fillOpacity=80;" parent="1" vertex="1">
          <mxGeometry x="50" y="190" width="200" height="50" as="geometry" />
        </mxCell>
        <mxCell id="osi4" value="Capa 4: Transporte&lt;br&gt;&lt;font style=&quot;font-size: 10px; color: #666666;&quot;&gt;TCP, UDP&lt;/font&gt;" style="rounded=0;whiteSpace=wrap;html=1;strokeColor=#333333;strokeWidth=2;fillColor=#fce4ec;fillOpacity=80;" parent="1" vertex="1">
          <mxGeometry x="50" y="270" width="200" height="50" as="geometry" />
        </mxCell>
        <mxCell id="osi3" value="Capa 3: Red&lt;br&gt;&lt;font style=&quot;font-size: 10px; color: #666666;&quot;&gt;IP, ICMP, Routers&lt;/font&gt;" style="rounded=0;whiteSpace=wrap;html=1;strokeColor=#333333;strokeWidth=2;fillColor=#f3e5f5;fillOpacity=80;" parent="1" vertex="1">
          <mxGeometry x="50" y="350" width="200" height="50" as="geometry" />
        </mxCell>
        <mxCell id="osi2" value="Capa 2: Enlace de Datos&lt;br&gt;&lt;font style=&quot;font-size: 10px; color: #666666;&quot;&gt;Ethernet, WiFi, Switches&lt;/font&gt;" style="rounded=0;whiteSpace=wrap;html=1;strokeColor=#333333;strokeWidth=2;fillColor=#e0f2f1;fillOpacity=80;" parent="1" vertex="1">
          <mxGeometry x="50" y="430" width="200" height="50" as="geometry" />
        </mxCell>
        <mxCell id="osi1" value="Capa 1: Física&lt;br&gt;&lt;font style=&quot;font-size: 10px; color: #666666;&quot;&gt;Cables, Señales, Hubs&lt;/font&gt;" style="rounded=0;whiteSpace=wrap;html=1;strokeColor=#333333;strokeWidth=2;fillColor=#fff8e1;fillOpacity=80;" parent="1" vertex="1">
          <mxGeometry x="50" y="490" width="200" height="50" as="geometry" />
        </mxCell>
        <mxCell id="tcpip4" value="Capa 4: Aplicación&lt;br&gt;&lt;font style=&quot;font-size: 10px; color: #666666;&quot;&gt;HTTP, FTP, SMTP, DNS, SSH&lt;br&gt;Combina OSI:&lt;br&gt;Aplicación + Presentación + Sesión&lt;/font&gt;" style="rounded=0;whiteSpace=wrap;html=1;strokeColor=#333333;strokeWidth=2;fillColor=#bbdefb;fillOpacity=80;" parent="1" vertex="1">
          <mxGeometry x="450" y="95" width="200" height="110" as="geometry" />
        </mxCell>
        <mxCell id="tcpip3" value="Capa 3: Transporte&lt;br&gt;&lt;font style=&quot;font-size: 10px; color: #666666;&quot;&gt;TCP, UDP&lt;br&gt;Equivale a OSI: Transporte&lt;/font&gt;" style="rounded=0;whiteSpace=wrap;html=1;strokeColor=#333333;strokeWidth=2;fillColor=#c8e6c9;fillOpacity=80;" parent="1" vertex="1">
          <mxGeometry x="450" y="270" width="200" height="50" as="geometry" />
        </mxCell>
        <mxCell id="tcpip2" value="Capa 2: Internet&lt;br&gt;&lt;font style=&quot;font-size: 10px; color: #666666;&quot;&gt;IP, ICMP, ARP&lt;br&gt;Equivale a OSI: Red&lt;/font&gt;" style="rounded=0;whiteSpace=wrap;html=1;strokeColor=#333333;strokeWidth=2;fillColor=#ffcdd2;fillOpacity=80;" parent="1" vertex="1">
          <mxGeometry x="450" y="350" width="200" height="50" as="geometry" />
        </mxCell>
        <mxCell id="tcpip1" value="Capa 1: Acceso a Red&lt;br&gt;&lt;font style=&quot;font-size: 10px; color: #666666;&quot;&gt;Ethernet, WiFi, PPP&lt;br&gt;Combina OSI:&lt;br&gt;Enlace de Datos + Física&lt;/font&gt;" style="rounded=0;whiteSpace=wrap;html=1;strokeColor=#333333;strokeWidth=2;fillColor=#d1c4e9;fillOpacity=80;" parent="1" vertex="1">
          <mxGeometry x="450" y="430" width="200" height="110" as="geometry" />
        </mxCell>
        <mxCell id="Ls7TGIyY2ZP_gjh6u__L-1" value="&lt;font style=&quot;font-size: 16px;&quot;&gt;&lt;b&gt;Módelo OSI&lt;/b&gt;&lt;/font&gt;" style="text;html=1;align=center;verticalAlign=middle;whiteSpace=wrap;rounded=0;" vertex="1" parent="1">
          <mxGeometry x="40" y="10" width="210" height="30" as="geometry" />
        </mxCell>
        <mxCell id="Ls7TGIyY2ZP_gjh6u__L-2" value="&lt;font style=&quot;font-size: 16px;&quot;&gt;&lt;b&gt;Módelo TCP&lt;/b&gt;&lt;/font&gt;" style="text;html=1;align=center;verticalAlign=middle;whiteSpace=wrap;rounded=0;" vertex="1" parent="1">
          <mxGeometry x="445" y="10" width="210" height="30" as="geometry" />
        </mxCell>
      </root>
    </mxGraphModel>
  </diagram>
</mxfile>
